<svg width="26" height="26" viewBox="0 0 26 26" fill="none" xmlns="http://www.w3.org/2000/svg">
<g clip-path="url(#clip0_1287_143)">
<mask id="mask0_1287_143" style="mask-type:alpha" maskUnits="userSpaceOnUse" x="0" y="0" width="26" height="26">
<rect width="26" height="26" rx="5.6875" fill="black"/>
</mask>
<g mask="url(#mask0_1287_143)">
<path d="M23.1775 8.88299C23.3803 8.4309 23.4818 8.20486 23.6554 8.21058C23.8291 8.2163 23.9122 8.43975 24.0783 8.88665C24.5545 10.1676 24.8153 11.5531 24.8153 12.9999C24.8153 19.5254 19.5254 24.8153 12.9999 24.8153C11.88 24.8153 10.7973 24.6577 9.77109 24.3656C9.26781 24.2223 9.01617 24.1507 9.00199 23.9713C8.98781 23.7919 9.23642 23.6763 9.73364 23.4453C14.1258 21.404 18.1164 18.1854 21.0077 13.1776C21.7714 11.8548 22.4936 10.4072 23.1775 8.88299ZM12.9999 1.18445C15.9951 1.18445 18.7287 2.30051 20.8111 4.13756C20.9361 4.24787 20.9987 4.30303 21.0177 4.38277C21.0368 4.4625 21.0052 4.54195 20.942 4.70084C19.9814 7.11662 18.9357 9.38543 17.8114 11.3329C14.7233 16.6814 10.1129 19.697 5.01074 21.33C4.86735 21.3759 4.79566 21.3988 4.72392 21.3808C4.65219 21.3627 4.60082 21.3095 4.49808 21.203C2.44703 19.0779 1.18445 16.1866 1.18445 12.9999C1.18452 6.47443 6.47443 1.18452 12.9999 1.18445ZM8.98621 5.79578C8.73812 5.79578 8.61259 6.26348 8.36121 7.19714L7.86707 9.02917C7.81984 9.20458 7.79624 9.29223 7.73523 9.35339C7.67409 9.41454 7.58644 9.43897 7.41101 9.48621L5.578 9.97937C4.64463 10.2307 4.17785 10.3564 4.17761 10.6044C4.17761 10.8524 4.64446 10.978 5.578 11.2294L7.41101 11.7235C7.58634 11.7707 7.6741 11.7942 7.73523 11.8553C7.79634 11.9165 7.81985 12.0042 7.86707 12.1796L8.36121 14.0126C8.61255 14.9461 8.73815 15.413 8.98621 15.413C9.23411 15.4126 9.35993 14.9458 9.61121 14.0126L10.1044 12.1796C10.1515 12.0044 10.1753 11.9165 10.2362 11.8553C10.2974 11.7942 10.3858 11.7708 10.5614 11.7235L12.3934 11.2294C13.3271 10.978 13.7938 10.8525 13.7938 10.6044C13.7936 10.3564 13.3269 10.2307 12.3934 9.97937L10.5614 9.48621C10.3857 9.4389 10.2974 9.41458 10.2362 9.35339C10.1754 9.29223 10.1516 9.20442 10.1044 9.02917L9.61121 7.19714C9.35991 6.2638 9.23412 5.7961 8.98621 5.79578Z" fill="#0F0F0F"/>
</g>
</g>
<defs>
<clipPath id="clip0_1287_143">
<rect width="26" height="26" rx="13" fill="white"/>
</clipPath>
</defs>
</svg>
