<svg width="190" height="121" viewBox="0 0 190 121" fill="none" xmlns="http://www.w3.org/2000/svg">
<g id="Frame 2131329314" clip-path="url(#clip0_108_1486)">
<g id="Group" filter="url(#filter0_dddd_108_1486)">
<path id="Vector" d="M139.69 5.91967L139.546 5.94213C122.124 8.6592 110.203 24.9895 112.921 42.4169L112.944 42.561C115.661 59.9884 131.988 71.9134 149.411 69.1964L149.555 69.1739C166.977 66.4568 178.897 50.1265 176.179 32.6991L176.157 32.5551C173.439 15.1277 157.112 3.2026 139.69 5.91967Z" fill="url(#paint0_linear_108_1486)"/>
<g id="Group_2">
<path id="Vector_2" d="M151.41 17.2738L131.843 20.3254C126.437 21.1684 122.725 26.2532 123.569 31.6605L126.361 49.5666C127.204 54.9739 132.288 58.687 137.694 57.844L157.261 54.7925C162.666 53.9494 166.378 48.8646 165.535 43.4574L162.742 25.5512C161.899 20.1439 156.815 16.4308 151.41 17.2738ZM127.027 31.1212C126.481 27.6219 128.884 24.3303 132.382 23.7847L151.949 20.7332C155.447 20.1876 158.738 22.5913 159.284 26.0906L162.076 43.9967C162.622 47.4959 160.219 50.7876 156.721 51.3331L137.154 54.3847C133.656 54.9302 130.365 52.5265 129.819 49.0273L127.027 31.1212Z" fill="white"/>
<path id="Vector_3" d="M145.974 46.6782C151 45.8942 154.454 41.1651 153.67 36.1346C152.885 31.104 148.158 27.6509 143.129 28.4352C138.099 29.2195 134.648 33.9482 135.432 38.9788C136.217 44.0093 140.945 47.4625 145.974 46.6782ZM143.668 31.8967C146.79 31.4099 149.725 33.5536 150.212 36.6761C150.699 39.7986 148.556 42.7342 145.434 43.221C142.313 43.7079 139.378 41.5642 138.891 38.4417C138.404 35.3192 140.547 32.3836 143.668 31.8967Z" fill="white"/>
<path id="Vector_4" d="M153.321 28.3551C154.675 28.144 155.607 26.8706 155.395 25.5143C155.184 24.1581 153.911 23.2284 152.555 23.4398C151.199 23.6513 150.27 24.9244 150.481 26.2807C150.693 27.6369 151.966 28.5666 153.321 28.3551Z" fill="white"/>
</g>
</g>
<g id="Group_3" filter="url(#filter1_dddd_108_1486)">
<path id="Vector_5" d="M76.7674 51.4502C74.5594 67.4649 60.8664 79.0684 45.1532 79.0912C43.6841 79.0924 42.1949 78.9935 40.6979 78.7871C38.9698 78.5488 37.2919 78.1771 35.6761 77.6827C20.9186 73.1711 11.1958 58.4909 13.3717 42.7095C15.7862 25.1973 31.9367 12.9569 49.4438 15.3707C66.9508 17.7845 79.1864 33.9387 76.7719 51.4509L76.7674 51.4502Z" fill="black"/>
<g id="layer1">
<path id="path1009" d="M28.6714 26.7565L40.5952 48.3239L23.6928 62.1926L27.0045 62.6492L41.8038 50.5078L50.2909 65.8599L61.5588 67.4135L48.9648 44.6329L64.6983 31.7237L61.3866 31.2671L47.7584 42.4493L39.9415 28.3103L28.6736 26.7568L28.6714 26.7565ZM33.2038 29.8673L38.379 30.5808L57.022 64.302L51.8467 63.5885L33.2038 29.8673Z" fill="white"/>
</g>
</g>
<g id="Group_4" filter="url(#filter2_dddd_108_1486)">
<path id="Vector_6" d="M126.867 60.9485C127.873 77.084 116.747 91.1687 101.349 94.3015C99.9093 94.5935 98.4299 94.7914 96.9216 94.8854C95.1805 94.9939 93.4621 94.9617 91.7803 94.7968C76.419 93.2958 63.9823 80.8302 62.9913 64.9297C61.8916 47.2855 75.3001 32.0899 92.9369 30.9907C110.574 29.8914 125.768 43.3043 126.867 60.9485Z" fill="#1877F2"/>
<path id="Vector_7" d="M98.9846 56.3649L99.4184 63.3245L108.025 62.7881L107.247 72.248L100.003 72.6996L101.349 94.2993C99.9091 94.5913 98.4297 94.7891 96.9214 94.8831C95.1803 94.9916 93.4619 94.9594 91.7802 94.7946L90.4402 73.2956L82.5024 73.7903L81.9181 64.4153L89.8559 63.9205L89.3251 55.4051C88.9959 50.1221 93.0099 45.5707 98.2935 45.2414L98.2938 45.2459C98.3095 45.2449 98.3226 45.2396 98.3383 45.2386L106.9 44.7049L107.406 52.813L101.811 53.1617C100.148 53.2653 98.883 54.6992 98.9867 56.3625L98.9846 56.3649Z" fill="white"/>
</g>
</g>
<defs>
<filter id="filter0_dddd_108_1486" x="108.535" y="2.53394" width="105.031" height="107.048" filterUnits="userSpaceOnUse" color-interpolation-filters="sRGB">
<feFlood flood-opacity="0" result="BackgroundImageFix"/>
<feColorMatrix in="SourceAlpha" type="matrix" values="0 0 0 0 0 0 0 0 0 0 0 0 0 0 0 0 0 0 127 0" result="hardAlpha"/>
<feOffset dx="1" dy="2"/>
<feGaussianBlur stdDeviation="2.5"/>
<feColorMatrix type="matrix" values="0 0 0 0 0 0 0 0 0 0 0 0 0 0 0 0 0 0 0.1 0"/>
<feBlend mode="normal" in2="BackgroundImageFix" result="effect1_dropShadow_108_1486"/>
<feColorMatrix in="SourceAlpha" type="matrix" values="0 0 0 0 0 0 0 0 0 0 0 0 0 0 0 0 0 0 127 0" result="hardAlpha"/>
<feOffset dx="6" dy="7"/>
<feGaussianBlur stdDeviation="4.5"/>
<feColorMatrix type="matrix" values="0 0 0 0 0 0 0 0 0 0 0 0 0 0 0 0 0 0 0.09 0"/>
<feBlend mode="normal" in2="effect1_dropShadow_108_1486" result="effect2_dropShadow_108_1486"/>
<feColorMatrix in="SourceAlpha" type="matrix" values="0 0 0 0 0 0 0 0 0 0 0 0 0 0 0 0 0 0 127 0" result="hardAlpha"/>
<feOffset dx="13" dy="15"/>
<feGaussianBlur stdDeviation="6"/>
<feColorMatrix type="matrix" values="0 0 0 0 0 0 0 0 0 0 0 0 0 0 0 0 0 0 0.05 0"/>
<feBlend mode="normal" in2="effect2_dropShadow_108_1486" result="effect3_dropShadow_108_1486"/>
<feColorMatrix in="SourceAlpha" type="matrix" values="0 0 0 0 0 0 0 0 0 0 0 0 0 0 0 0 0 0 127 0" result="hardAlpha"/>
<feOffset dx="23" dy="26"/>
<feGaussianBlur stdDeviation="7"/>
<feColorMatrix type="matrix" values="0 0 0 0 0 0 0 0 0 0 0 0 0 0 0 0 0 0 0.01 0"/>
<feBlend mode="normal" in2="effect3_dropShadow_108_1486" result="effect4_dropShadow_108_1486"/>
<feBlend mode="normal" in="SourceGraphic" in2="effect4_dropShadow_108_1486" result="shape"/>
</filter>
<filter id="filter1_dddd_108_1486" x="-38.9321" y="-8.93298" width="119.008" height="96.0242" filterUnits="userSpaceOnUse" color-interpolation-filters="sRGB">
<feFlood flood-opacity="0" result="BackgroundImageFix"/>
<feColorMatrix in="SourceAlpha" type="matrix" values="0 0 0 0 0 0 0 0 0 0 0 0 0 0 0 0 0 0 127 0" result="hardAlpha"/>
<feOffset dx="-2" dy="-1"/>
<feGaussianBlur stdDeviation="2.5"/>
<feColorMatrix type="matrix" values="0 0 0 0 0 0 0 0 0 0 0 0 0 0 0 0 0 0 0.1 0"/>
<feBlend mode="normal" in2="BackgroundImageFix" result="effect1_dropShadow_108_1486"/>
<feColorMatrix in="SourceAlpha" type="matrix" values="0 0 0 0 0 0 0 0 0 0 0 0 0 0 0 0 0 0 127 0" result="hardAlpha"/>
<feOffset dx="-9" dy="-2"/>
<feGaussianBlur stdDeviation="4.5"/>
<feColorMatrix type="matrix" values="0 0 0 0 0 0 0 0 0 0 0 0 0 0 0 0 0 0 0.09 0"/>
<feBlend mode="normal" in2="effect1_dropShadow_108_1486" result="effect2_dropShadow_108_1486"/>
<feColorMatrix in="SourceAlpha" type="matrix" values="0 0 0 0 0 0 0 0 0 0 0 0 0 0 0 0 0 0 127 0" result="hardAlpha"/>
<feOffset dx="-21" dy="-5"/>
<feGaussianBlur stdDeviation="6.5"/>
<feColorMatrix type="matrix" values="0 0 0 0 0 0 0 0 0 0 0 0 0 0 0 0 0 0 0.05 0"/>
<feBlend mode="normal" in2="effect2_dropShadow_108_1486" result="effect3_dropShadow_108_1486"/>
<feColorMatrix in="SourceAlpha" type="matrix" values="0 0 0 0 0 0 0 0 0 0 0 0 0 0 0 0 0 0 127 0" result="hardAlpha"/>
<feOffset dx="-37" dy="-9"/>
<feGaussianBlur stdDeviation="7.5"/>
<feColorMatrix type="matrix" values="0 0 0 0 0 0 0 0 0 0 0 0 0 0 0 0 0 0 0.01 0"/>
<feBlend mode="normal" in2="effect3_dropShadow_108_1486" result="effect4_dropShadow_108_1486"/>
<feBlend mode="normal" in="SourceGraphic" in2="effect4_dropShadow_108_1486" result="shape"/>
</filter>
<filter id="filter2_dddd_108_1486" x="7.92822" y="25.9276" width="124.002" height="126.021" filterUnits="userSpaceOnUse" color-interpolation-filters="sRGB">
<feFlood flood-opacity="0" result="BackgroundImageFix"/>
<feColorMatrix in="SourceAlpha" type="matrix" values="0 0 0 0 0 0 0 0 0 0 0 0 0 0 0 0 0 0 127 0" result="hardAlpha"/>
<feOffset dx="-2" dy="2"/>
<feGaussianBlur stdDeviation="3.5"/>
<feColorMatrix type="matrix" values="0 0 0 0 0 0 0 0 0 0 0 0 0 0 0 0 0 0 0.1 0"/>
<feBlend mode="normal" in2="BackgroundImageFix" result="effect1_dropShadow_108_1486"/>
<feColorMatrix in="SourceAlpha" type="matrix" values="0 0 0 0 0 0 0 0 0 0 0 0 0 0 0 0 0 0 127 0" result="hardAlpha"/>
<feOffset dx="-9" dy="9"/>
<feGaussianBlur stdDeviation="6.5"/>
<feColorMatrix type="matrix" values="0 0 0 0 0 0 0 0 0 0 0 0 0 0 0 0 0 0 0.09 0"/>
<feBlend mode="normal" in2="effect1_dropShadow_108_1486" result="effect2_dropShadow_108_1486"/>
<feColorMatrix in="SourceAlpha" type="matrix" values="0 0 0 0 0 0 0 0 0 0 0 0 0 0 0 0 0 0 127 0" result="hardAlpha"/>
<feOffset dx="-20" dy="21"/>
<feGaussianBlur stdDeviation="8.5"/>
<feColorMatrix type="matrix" values="0 0 0 0 0 0 0 0 0 0 0 0 0 0 0 0 0 0 0.05 0"/>
<feBlend mode="normal" in2="effect2_dropShadow_108_1486" result="effect3_dropShadow_108_1486"/>
<feColorMatrix in="SourceAlpha" type="matrix" values="0 0 0 0 0 0 0 0 0 0 0 0 0 0 0 0 0 0 127 0" result="hardAlpha"/>
<feOffset dx="-35" dy="37"/>
<feGaussianBlur stdDeviation="10"/>
<feColorMatrix type="matrix" values="0 0 0 0 0 0 0 0 0 0 0 0 0 0 0 0 0 0 0.01 0"/>
<feBlend mode="normal" in2="effect3_dropShadow_108_1486" result="effect4_dropShadow_108_1486"/>
<feBlend mode="normal" in="SourceGraphic" in2="effect4_dropShadow_108_1486" result="shape"/>
</filter>
<linearGradient id="paint0_linear_108_1486" x1="125.662" y1="63.4341" x2="163.454" y2="11.6952" gradientUnits="userSpaceOnUse">
<stop stop-color="#FAAD4F"/>
<stop offset="0.35" stop-color="#DD2A7B"/>
<stop offset="0.62" stop-color="#9537B0"/>
<stop offset="1" stop-color="#515BD4"/>
</linearGradient>
<clipPath id="clip0_108_1486">
<rect width="190" height="120" fill="white" transform="translate(0 0.5)"/>
</clipPath>
</defs>
</svg>
