<svg width="20" height="20" viewBox="0 0 20 20" fill="none" xmlns="http://www.w3.org/2000/svg">
<g id="German">
<g id="Vector">
<path d="M10.0002 18.8889C5.09102 18.8889 1.11133 14.9092 1.11133 9.99997C1.11133 5.09078 5.09102 1.11108 10.0002 1.11108C14.9094 1.11108 18.8891 5.09078 18.8891 9.99997C18.8891 14.9092 14.9094 18.8889 10.0002 18.8889Z" fill="#D90026"/>
<path d="M18.3295 6.88886C17.0684 3.51405 13.8149 1.11108 10.0002 1.11108C6.18553 1.11108 2.93208 3.51405 1.67098 6.88886L18.3295 6.88886Z" fill="black"/>
<path d="M1.67098 13.1111C2.93208 16.4859 6.18553 18.8889 10.0002 18.8889C13.8149 18.8889 17.0684 16.4859 18.3295 13.1111L1.67098 13.1111Z" fill="#FFDB44"/>
</g>
</g>
</svg>
