<svg width="20" height="20" viewBox="0 0 20 20" fill="none" xmlns="http://www.w3.org/2000/svg">
<g id="America">
<g id="Group 4">
<circle id="Ellipse 2" cx="9.77756" cy="9.99997" r="8.88889" fill="white"/>
<g id="Group 1">
<mask id="mask0_469_4545" style="mask-type:alpha" maskUnits="userSpaceOnUse" x="0" y="1" width="19" height="18">
<circle id="Ellipse 1" cx="9.77756" cy="9.99997" r="8.88889" fill="#FCFCFC"/>
</mask>
<g mask="url(#mask0_469_4545)">
<g id="Rectangle 1">
<rect x="3.77734" y="16.8889" width="12.2222" height="2.22222" fill="#D90026"/>
<rect x="3.77734" y="16.8889" width="12.2222" height="2.22222" fill="#D90026"/>
</g>
<g id="Rectangle 2">
<rect x="1.11084" y="12.4444" width="17.5556" height="2.22222" fill="#D90026"/>
<rect x="1.11084" y="12.4444" width="17.5556" height="2.22222" fill="#D90026"/>
</g>
<g id="Rectangle 3">
<rect x="1.11084" y="7.77777" width="17.5556" height="2.22222" fill="#D90026"/>
<rect x="1.11084" y="7.77777" width="17.5556" height="2.22222" fill="#D90026"/>
</g>
<g id="Rectangle 4">
<rect x="1.11084" y="3.33331" width="17.5556" height="2.22222" fill="#D90026"/>
<rect x="1.11084" y="3.33331" width="17.5556" height="2.22222" fill="#D90026"/>
</g>
<rect id="Rectangle 5" x="0.888672" y="1.11108" width="9.11111" height="8.88889" fill="#0052B5"/>
<path id="Vector 1" d="M8.2219 8.55553L7.55523 8.88886L7.77745 8.2222L7.33301 7.77775H7.99967L8.2219 7.11108L8.55523 7.77775H9.11079L8.66634 8.2222L8.88856 8.88886L8.2219 8.55553Z" fill="#EFEFEF"/>
<path id="Vector 4" d="M5.11106 8.55553L4.44439 8.88886L4.66661 8.2222L4.22217 7.77775H4.88883L5.11106 7.11108L5.44439 7.77775H5.99995L5.5555 8.2222L5.77772 8.88886L5.11106 8.55553Z" fill="#EFEFEF"/>
<path id="Vector 5" d="M1.99973 8.55553L1.33306 8.88886L1.55528 8.2222L1.11084 7.77775H1.77751L1.99973 7.11108L2.33306 7.77775H2.88862L2.44417 8.2222L2.6664 8.88886L1.99973 8.55553Z" fill="#EFEFEF"/>
<path id="Vector 2" d="M8.2219 6.11107L7.55523 6.4444L7.77745 5.77774L7.33301 5.33329H7.99967L8.2219 4.66663L8.55523 5.33329H9.11079L8.66634 5.77774L8.88856 6.4444L8.2219 6.11107Z" fill="#EFEFEF"/>
<path id="Vector 6" d="M8.2219 3.66661L7.55523 3.99995L7.77745 3.33328L7.33301 2.88883H7.99967L8.2219 2.22217L8.55523 2.88883H9.11079L8.66634 3.33328L8.88856 3.99995L8.2219 3.66661Z" fill="#EFEFEF"/>
<path id="Vector 9" d="M8.2219 1.22222L7.55523 1.55555L7.77745 0.888882L7.33301 0.444438H7.99967L8.2219 -0.222229L8.55523 0.444438H9.11079L8.66634 0.888882L8.88856 1.55555L8.2219 1.22222Z" fill="#EFEFEF"/>
<path id="Vector 7" d="M5.11106 3.66661L4.44439 3.99995L4.66661 3.33328L4.22217 2.88883H4.88883L5.11106 2.22217L5.44439 2.88883H5.99995L5.5555 3.33328L5.77772 3.99995L5.11106 3.66661Z" fill="#EFEFEF"/>
<path id="Vector 3" d="M5.11106 6.11107L4.44439 6.4444L4.66661 5.77774L4.22217 5.33329H4.88883L5.11106 4.66663L5.44439 5.33329H5.99995L5.5555 5.77774L5.77772 6.4444L5.11106 6.11107Z" fill="#EFEFEF"/>
<path id="Vector 8" d="M1.99973 6.11107L1.33306 6.4444L1.55528 5.77774L1.11084 5.33329H1.77751L1.99973 4.66663L2.33306 5.33329H2.88862L2.44417 5.77774L2.6664 6.4444L1.99973 6.11107Z" fill="#EFEFEF"/>
</g>
</g>
</g>
</g>
</svg>
