<svg width="20" height="20" viewBox="0 0 20 20" fill="none" xmlns="http://www.w3.org/2000/svg">
<g id="Spanish">
<g id="Vector">
<path d="M9.77756 18.8889C4.86836 18.8889 0.888672 14.9092 0.888672 9.99997C0.888672 5.09078 4.86836 1.11108 9.77756 1.11108C14.6868 1.11108 18.6665 5.09078 18.6665 9.99997C18.6665 14.9092 14.6868 18.8889 9.77756 18.8889Z" fill="#FFDB44"/>
<path d="M18.1068 6.88886C16.8457 3.51405 13.5923 1.11108 9.77756 1.11108C5.96287 1.11108 2.70942 3.51405 1.44832 6.88886L18.1068 6.88886Z" fill="#D90026"/>
<path d="M1.44832 13.1111C2.70942 16.4859 5.96287 18.8889 9.77756 18.8889C13.5923 18.8889 16.8457 16.4859 18.1068 13.1111L1.44832 13.1111Z" fill="#D90026"/>
</g>
</g>
</svg>
