<svg width="20" height="20" viewBox="0 0 20 20" fill="none" xmlns="http://www.w3.org/2000/svg">
<g id="Korea">
<g id="Group 6">
<path id="Vector" d="M9.88883 18.9653C14.7789 18.9653 18.743 15.0011 18.743 10.1111C18.743 5.2211 14.7789 1.25696 9.88883 1.25696C4.99881 1.25696 1.03467 5.2211 1.03467 10.1111C1.03467 15.0011 4.99881 18.9653 9.88883 18.9653Z" fill="#F5F5F5"/>
<path id="Vector_2" d="M7.35085 10.6129C8.17724 11.1736 9.32828 10.9375 9.88904 10.1111C10.4498 9.28476 11.5713 9.04865 12.4272 9.60941C13.2241 10.1407 13.4602 11.1736 13.0175 11.9705C13.9915 10.3177 13.5488 8.16323 11.896 7.07122C10.2137 5.94969 7.94113 6.3924 6.8196 8.07469C6.79009 8.13372 6.76057 8.19274 6.73106 8.22226C6.31786 9.07816 6.58349 10.0816 7.35085 10.6129Z" fill="#ED4C5C"/>
<path id="Vector_3" d="M12.9287 12.1476C12.9582 12.0885 12.9877 12.0295 13.0173 12C12.9877 12.0295 12.9582 12.0885 12.9287 12.1476Z" fill="#003478"/>
<path id="Vector_4" d="M12.427 9.60935C11.6006 9.04858 10.4496 9.2847 9.88881 10.1111C9.32804 10.9375 8.20651 11.1736 7.35061 10.6128C6.55374 10.0816 6.31763 9.04858 6.76033 8.25171C5.75686 9.90449 6.22908 12.059 7.88186 13.151C9.56415 14.2725 11.8367 13.8298 12.9583 12.1475C12.9878 12.0885 13.0173 12.0295 13.0468 12C13.46 11.1441 13.1944 10.1406 12.427 9.60935Z" fill="#428BC1"/>
<g id="Group">
<path id="Vector_5" d="M2.74669 7.54335L4.78315 4.50342L4.57655 4.35585L4.36995 4.23779L2.3335 7.27772L2.54009 7.39578L2.74669 7.54335Z" fill="#3E4347"/>
<path id="Vector_6" d="M3.30718 7.927L3.51378 8.04506L5.52073 5.00513L5.34364 4.88707L5.13704 4.7395L3.10059 7.77943L3.30718 7.927Z" fill="#3E4347"/>
<path id="Vector_7" d="M5.87511 5.24121L3.86816 8.28114L4.07476 8.42871L4.28136 8.54677L6.2883 5.50684L6.08171 5.38878L5.87511 5.24121Z" fill="#3E4347"/>
<path id="Vector_8" d="M14.7588 13.21L14.9654 13.3576L15.9099 11.9409L15.7033 11.7933L15.4967 11.6753L14.5522 13.092L14.7588 13.21Z" fill="#3E4347"/>
<path id="Vector_9" d="M17.0314 12.6787L16.0869 14.0954L16.2935 14.2429L16.5001 14.361L17.4446 12.9443L17.238 12.8263L17.0314 12.6787Z" fill="#3E4347"/>
<path id="Vector_10" d="M15.7325 13.8593L16.677 12.4426L16.4704 12.2951L16.2638 12.177L15.3193 13.5937L15.5259 13.7117L15.7325 13.8593Z" fill="#3E4347"/>
<path id="Vector_11" d="M14.6408 13.4166L14.4342 13.2986L13.4897 14.7153L13.6963 14.8333L13.9029 14.9809L14.8474 13.5642L14.6408 13.4166Z" fill="#3E4347"/>
<path id="Vector_12" d="M15.3784 13.9183L15.2013 13.8003L14.2568 15.217L14.4339 15.335L14.6405 15.4826L15.585 14.0659L15.3784 13.9183Z" fill="#3E4347"/>
<path id="Vector_13" d="M15.9391 14.302L14.9946 15.7187L15.2012 15.8662L15.4078 15.9843L16.3523 14.5676L16.1457 14.4201L15.9391 14.302Z" fill="#3E4347"/>
<path id="Vector_14" d="M2.54009 12.8263L2.3335 12.9443L4.36995 15.9843L4.57655 15.8662L4.78315 15.7186L2.74669 12.6787L2.54009 12.8263Z" fill="#3E4347"/>
<path id="Vector_15" d="M4.39947 13.9183L4.19287 14.0659L5.13732 15.4826L5.34391 15.335L5.521 15.217L4.57655 13.8003L4.39947 13.9183Z" fill="#3E4347"/>
<path id="Vector_16" d="M4.07476 11.7933L3.86816 11.9409L5.87511 14.9808L6.08171 14.8333L6.2883 14.7152L4.28136 11.6753L4.07476 11.7933Z" fill="#3E4347"/>
<path id="Vector_17" d="M3.10059 12.4426L4.04503 13.8593L4.25163 13.7117L4.45822 13.5937L3.51378 12.177L3.30718 12.2951L3.10059 12.4426Z" fill="#3E4347"/>
<path id="Vector_18" d="M16.1457 5.80203L16.3523 5.65446L15.4078 4.23779L15.2012 4.35585L14.9946 4.50342L15.9391 5.92008L16.1457 5.80203Z" fill="#3E4347"/>
<path id="Vector_19" d="M14.6408 6.80545L14.8474 6.65788L13.9029 5.24121L13.6963 5.38878L13.4897 5.50684L14.4342 6.9235L14.6408 6.80545Z" fill="#3E4347"/>
<path id="Vector_20" d="M16.0869 6.12671L17.0314 7.54338L17.238 7.39581L17.4446 7.27775L16.5001 5.86108L16.2935 5.97914L16.0869 6.12671Z" fill="#3E4347"/>
<path id="Vector_21" d="M16.4704 7.927L16.677 7.77943L14.6405 4.7395L14.4339 4.88707L14.2568 5.00513L16.2638 8.04506L16.4704 7.927Z" fill="#3E4347"/>
<path id="Vector_22" d="M15.7033 8.42874L15.9099 8.28117L14.9654 6.8645L14.7588 7.01207L14.5522 7.13013L15.4967 8.54679L15.7033 8.42874Z" fill="#3E4347"/>
</g>
</g>
</g>
</svg>
