<svg width="20" height="20" viewBox="0 0 20 20" fill="none" xmlns="http://www.w3.org/2000/svg">
<g id="Russia">
<g id="Group 4">
<path id="Ellipse 2" d="M9.99978 18.8889C5.09058 18.8889 1.11089 14.9092 1.11089 9.99997C1.11089 5.09077 5.09058 1.11108 9.99978 1.11108C14.909 1.11108 18.8887 5.09078 18.8887 9.99997C18.8887 14.9092 14.909 18.8889 9.99978 18.8889Z" fill="#0052B5"/>
<path id="Ellipse 3" d="M18.3291 6.88886C17.068 3.51405 13.8146 1.11108 9.99986 1.11108C6.18517 1.11108 2.93173 3.51405 1.67063 6.88886L18.3291 6.88886Z" fill="white"/>
<path id="Ellipse 4" d="M1.6709 13.1111C2.932 16.486 6.18545 18.8889 10.0001 18.8889C13.8148 18.8889 17.0683 16.486 18.3294 13.1111L1.6709 13.1111Z" fill="#D90026"/>
</g>
</g>
</svg>
