<svg width="20" height="20" viewBox="0 0 20 20" fill="none" xmlns="http://www.w3.org/2000/svg">
<g id="China">
<g id="Vector">
<path d="M9.77756 18.8889C4.86836 18.8889 0.888672 14.9092 0.888672 9.99997C0.888672 5.09078 4.86836 1.11108 9.77756 1.11108C14.6868 1.11108 18.6665 5.09078 18.6665 9.99997C18.6665 14.9092 14.6868 18.8889 9.77756 18.8889Z" fill="#D90026"/>
<path d="M11.0939 6.66588L10.2202 6.57179L10.8654 6.05204L10.7077 5.32798L11.3691 5.75273L12.0143 5.23298L11.9202 6.1067L12.4713 6.46066L11.7472 6.61838L11.5429 7.4213L11.0939 6.66588Z" fill="#FFDB44"/>
<path d="M5.77756 11.5833L3.61089 12.6666L4.33312 10.5L2.88867 9.05553H5.05534L5.77756 6.88886L6.8609 9.05553H8.66645L7.22201 10.5L7.94423 12.6666L5.77756 11.5833Z" fill="#FFDB44"/>
<path d="M11.0939 13.3414L10.2202 13.4355L10.8654 13.9553L10.7077 14.6793L11.3691 14.2546L12.0143 14.7743L11.9202 13.9006L12.4713 13.5466L11.7472 13.3889L11.5429 12.586L11.0939 13.3414Z" fill="#FFDB44"/>
<path d="M13.2029 9.01565L12.3927 8.67541L13.1597 8.36208L13.2158 7.62317L13.7279 8.21945L14.4949 7.90613L14.1546 8.71635L14.5814 9.21326L13.8425 9.15713L13.4169 9.86797L13.2029 9.01565Z" fill="#FFDB44"/>
<path d="M13.2029 11.4955L12.3927 11.8357L13.1597 12.1491L13.2158 12.888L13.7279 12.2917L14.4949 12.605L14.1546 11.7948L14.5814 11.2979L13.8425 11.354L13.4169 10.6432L13.2029 11.4955Z" fill="#FFDB44"/>
</g>
</g>
</svg>
